# xmcd CD database file
#
# Track frame offsets:
#	150
#	587
#	39127
#	106363
#	141255
#	192817
#	226772
#	233745
#	252902
#
# Disc length: 3832 seconds
#
# Revision: 0
# Processed by: cddbd v1.4PL0 Copyright (c) Steve Scherf et al.
# Submitted via: NeoAudio 9.9.9
#
DISCID=630ef609
DTITLE=Gov't Mule - Portsmouth, NH 3/3/02 (2nd Set and Encore)
DYEAR=2002
DGENRE=Blues
TTITLE0=2nd Set
TTITLE1=Slo Mule
TTITLE2=Low Spark Of High Heeled Boys
TTITLE3=Fools Moon
TTITLE4=Effigy
TTITLE5=Soulshine
TTITLE6=Encore
TTITLE7=Awakening Americans
TTITLE8=Rockin' In The Free World
EXTD=YEAR: 2002
EXTT0=
EXTT1=
EXTT2=
EXTT3=
EXTT4=
EXTT5=
EXTT6=
EXTT7=
EXTT8=
PLAYORDER=
